<svg width="15" height="16" viewBox="0 0 15 16" fill="none" xmlns="http://www.w3.org/2000/svg">
<path d="M1.40527 12.3779L6.78516 15.4268C7.16797 15.6455 7.53027 15.6455 7.91992 15.4268L13.293 12.3779C13.9219 12.0156 14.25 11.6602 14.25 10.6826V5.26855C14.25 4.55762 13.9902 4.12012 13.416 3.78516L8.57617 1.03711C7.74902 0.56543 6.94922 0.56543 6.12207 1.03711L1.28906 3.78516C0.708008 4.12012 0.448242 4.55762 0.448242 5.26855V10.6826C0.448242 11.6602 0.783203 12.0156 1.40527 12.3779ZM10.5654 5.75391L5.26758 2.75977L6.58008 2.01465C7.10645 1.71387 7.5918 1.70703 8.125 2.01465L12.6299 4.58496L10.5654 5.75391ZM7.35254 7.57227L2.0752 4.58496L4.1875 3.375L9.46484 6.37598L7.35254 7.57227ZM2.02051 11.4756C1.62402 11.25 1.4873 11.0244 1.4873 10.6484V5.4873L6.8125 8.5293V14.2031L2.02051 11.4756ZM12.6846 11.4756L7.88574 14.2031V8.5293L13.2109 5.4873V10.6484C13.2109 11.0244 13.0742 11.25 12.6846 11.4756Z" fill="#555659"/>
</svg>
