<svg width="12" height="8" viewBox="0 0 12 8" fill="none" xmlns="http://www.w3.org/2000/svg">
<path d="M6.11523 7.16211C6.42578 7.15625 6.67773 7.04492 6.92383 6.79297L11.2305 2.38086C11.418 2.19336 11.5059 1.97656 11.5059 1.70703C11.5059 1.16797 11.0664 0.722656 10.5332 0.722656C10.2695 0.722656 10.0176 0.833984 9.8125 1.03906L6.12109 4.86523L2.41797 1.03906C2.21875 0.839844 1.9668 0.722656 1.69727 0.722656C1.16406 0.722656 0.724609 1.16797 0.724609 1.70703C0.724609 1.9707 0.818359 2.19336 1 2.38672L5.30664 6.79297C5.56445 7.04492 5.81055 7.16211 6.11523 7.16211Z" fill="#818284"/>
</svg>
