<svg width="8" height="13" viewBox="0 0 8 13" fill="none" xmlns="http://www.w3.org/2000/svg">
<path d="M7.15918 6.06445C7.15234 5.8252 7.06348 5.62012 6.87891 5.43555L1.56055 0.233398C1.40332 0.0830078 1.21875 0.000976562 0.993164 0.000976562C0.535156 0.000976562 0.179688 0.356445 0.179688 0.814453C0.179688 1.0332 0.268555 1.23828 0.425781 1.39551L5.21094 6.06445L0.425781 10.7334C0.268555 10.8906 0.179688 11.0889 0.179688 11.3145C0.179688 11.7725 0.535156 12.1279 0.993164 12.1279C1.21191 12.1279 1.40332 12.0459 1.56055 11.8955L6.87891 6.68652C7.07031 6.50879 7.15918 6.30371 7.15918 6.06445Z" fill="#ADADAF"/>
</svg>
