<svg width="15" height="15" viewBox="0 0 15 15" fill="none" xmlns="http://www.w3.org/2000/svg">
<path d="M7.53027 14.8105C11.502 14.8105 14.7695 11.543 14.7695 7.57129C14.7695 3.59277 11.502 0.325195 7.52344 0.325195C3.54492 0.325195 0.28418 3.59277 0.28418 7.57129C0.28418 11.543 3.55176 14.8105 7.53027 14.8105ZM7.53027 12.9512C4.54297 12.9512 2.15039 10.5518 2.15039 7.57129C2.15039 4.58398 4.54297 2.18457 7.52344 2.18457C10.5039 2.18457 12.9102 4.58398 12.9102 7.57129C12.917 10.5518 10.5107 12.9512 7.53027 12.9512ZM4.31738 8.64453H7.52344C7.90625 8.64453 8.2002 8.34375 8.2002 7.96094V3.75C8.2002 3.36719 7.90625 3.07324 7.52344 3.07324C7.14746 3.07324 6.84668 3.36719 6.84668 3.75V7.28418H4.31738C3.93457 7.28418 3.64062 7.58496 3.64062 7.96094C3.64062 8.34375 3.93457 8.64453 4.31738 8.64453Z" fill="#ADADAF"/>
</svg>
