<svg width="14" height="14" viewBox="0 0 14 14" fill="none" xmlns="http://www.w3.org/2000/svg">
<path d="M3.18359 13.1338H11.4209C12.9932 13.1338 13.8613 12.2656 13.8613 10.707V2.44238C13.8613 0.876953 12.9932 0.015625 11.4209 0.015625H3.18359C1.61133 0.015625 0.743164 0.876953 0.743164 2.44238V10.707C0.743164 12.2725 1.61133 13.1338 3.18359 13.1338ZM3.39551 11.3018C2.85547 11.3018 2.5752 11.042 2.5752 10.4746V2.6748C2.5752 2.10059 2.85547 1.84766 3.39551 1.84766H11.209C11.7422 1.84766 12.0293 2.10059 12.0293 2.6748V10.4746C12.0293 11.042 11.7422 11.3018 11.209 11.3018H3.39551ZM5.82227 9.90039C6.05469 10.1328 6.54688 10.126 6.7998 9.88672L9.46582 7.3916C9.92383 6.9541 9.93066 6.18848 9.46582 5.75781L6.7998 3.2627C6.51953 2.99609 6.0957 3.00293 5.83594 3.24219C5.54883 3.50879 5.54199 3.97363 5.82227 4.2334L8.31738 6.57129L5.82227 8.91602C5.54883 9.16895 5.52832 9.61328 5.82227 9.90039Z" fill="#ADADAF"/>
</svg>
