<svg width="15" height="15" viewBox="0 0 15 15" fill="none" xmlns="http://www.w3.org/2000/svg">
<path d="M7.69434 14.6396C11.5703 14.6396 14.7695 11.4404 14.7695 7.57129C14.7695 3.69531 11.5635 0.496094 7.6875 0.496094C3.81836 0.496094 0.625977 3.69531 0.625977 7.57129C0.625977 11.4404 3.8252 14.6396 7.69434 14.6396ZM5.24707 5.36328C5.01465 5.08984 5.08984 4.70703 5.45215 4.43359C6.0332 3.96875 6.85352 3.68164 7.70801 3.68164C9.66992 3.68164 11.2217 4.99414 11.5635 6.88086H12.2129C12.5615 6.88086 12.6504 7.22266 12.4521 7.49609L11.3311 9.04785C11.126 9.33496 10.7773 9.32129 10.5791 9.04785L9.45117 7.49609C9.24609 7.22949 9.3418 6.88086 9.69043 6.88086H10.3877C10.0732 5.73926 9 4.88477 7.70801 4.88477C7.09277 4.88477 6.62109 5.06934 6.14258 5.43164C5.82129 5.65039 5.48633 5.64355 5.24707 5.36328ZM2.94336 7.61914L4.05762 6.06738C4.26953 5.78027 4.61133 5.79395 4.80957 6.06738L5.94434 7.61914C6.14258 7.88574 6.05371 8.22754 5.70508 8.22754H5.03516C5.34961 9.37598 6.42285 10.2305 7.72168 10.2305C8.33691 10.2305 8.80859 10.0391 9.28027 9.68359C9.60156 9.45801 9.94336 9.46484 10.1758 9.74512C10.415 10.0186 10.3398 10.4082 9.97754 10.6816C9.39648 11.1465 8.56934 11.4268 7.72168 11.4268C5.75977 11.4268 4.20801 10.1211 3.86621 8.22754H3.17578C2.82715 8.22754 2.73828 7.88574 2.94336 7.61914Z" fill="#818284"/>
</svg>
