<svg width="26" height="28" viewBox="0 0 26 28" fill="none" xmlns="http://www.w3.org/2000/svg">
<path d="M15.1797 6.45312C15.3672 6.45312 15.4844 6.32422 15.5078 6.14844C15.8242 4.22656 15.8242 4.21484 17.8047 3.85156C18.0039 3.81641 18.1211 3.69922 18.1211 3.52344C18.1211 3.33594 18.0039 3.21875 17.8281 3.18359C15.8008 2.77344 15.8242 2.76172 15.5078 0.898438C15.4844 0.710938 15.3672 0.582031 15.1797 0.582031C14.9922 0.582031 14.875 0.710938 14.8516 0.886719C14.5117 2.82031 14.5469 2.84375 12.543 3.18359C12.3672 3.20703 12.2383 3.33594 12.2383 3.52344C12.2383 3.69922 12.3555 3.81641 12.5312 3.85156C14.5469 4.26172 14.5352 4.26172 14.8516 6.16016C14.875 6.32422 14.9922 6.45312 15.1797 6.45312ZM20.8516 14.832C21.1445 14.832 21.3555 14.6328 21.3906 14.3281C21.7656 11.2695 21.8828 11.1641 25.0234 10.6836C25.3516 10.6367 25.5508 10.4375 25.5508 10.1445C25.5508 9.86328 25.3516 9.66406 25.082 9.60547C21.8828 8.96094 21.7656 9.01953 21.3906 5.97266C21.3555 5.66797 21.1445 5.46875 20.8516 5.46875C20.5703 5.46875 20.3594 5.66797 20.3242 5.96094C19.9258 9.08984 19.8438 9.17188 16.6328 9.60547C16.3633 9.65234 16.1641 9.86328 16.1641 10.1445C16.1641 10.4258 16.3516 10.625 16.6328 10.6836C19.8555 11.3398 19.9141 11.3047 20.3242 14.3516C20.3594 14.6328 20.5703 14.832 20.8516 14.832ZM11.3711 27.4062C15.9648 27.4062 19.8789 24.8164 21.5781 20.7852C21.8477 20.1055 21.8359 19.5664 21.4961 19.25C21.1914 18.9688 20.6758 18.9219 20.1367 19.168C19.1523 19.6016 17.8633 19.8945 16.5156 19.8945C11.3594 19.8945 7.89062 16.543 7.89062 11.5273C7.89062 10.1211 8.20703 8.55078 8.69922 7.51953C8.99219 6.875 8.96875 6.38281 8.6875 6.05469C8.39453 5.72656 7.84375 5.67969 7.16406 5.96094C3.07422 7.58984 0.261719 11.7266 0.261719 16.3438C0.261719 22.6953 4.91406 27.4062 11.3711 27.4062Z" fill="url(#paint0_linear)"/>
<defs>
<linearGradient id="paint0_linear" x1="2.30147" y1="5.65809" x2="22.9734" y2="27.0429" gradientUnits="userSpaceOnUse">
<stop stop-color="#29ABE2"/>
<stop offset="1" stop-color="#522785"/>
</linearGradient>
</defs>
</svg>
