<svg width="26" height="26" viewBox="0 0 26 26" fill="none" xmlns="http://www.w3.org/2000/svg">
<path d="M13 25.4609C19.8086 25.4609 25.4102 19.8594 25.4102 13.0508C25.4102 6.23047 19.8086 0.628906 12.9883 0.628906C6.16797 0.628906 0.578125 6.23047 0.578125 13.0508C0.578125 19.8594 6.17969 25.4609 13 25.4609ZM13 6.61719C13.8203 6.61719 14.4531 7.17969 14.4531 7.97656V13.1211L14.3008 15.5234L15.1797 14.293L16.3984 12.9453C16.6211 12.6875 16.9727 12.5352 17.3242 12.5352C18.0625 12.5352 18.5781 13.0391 18.5781 13.7305C18.5781 14.1172 18.4609 14.3867 18.1914 14.6914L14.1836 18.8867C13.8555 19.2383 13.4688 19.4141 13 19.4141C12.5195 19.4141 12.1445 19.25 11.8164 18.8867L7.80859 14.6914C7.52734 14.3867 7.42188 14.1172 7.42188 13.7305C7.42188 13.0391 7.9375 12.5352 8.66406 12.5352C9.02734 12.5352 9.37891 12.6875 9.60156 12.9453L10.8203 14.3281L11.6875 15.5117L11.5469 13.1211V7.97656C11.5469 7.17969 12.168 6.61719 13 6.61719Z" fill="url(#paint0_linear)"/>
<defs>
<linearGradient id="paint0_linear" x1="2.30147" y1="2.65809" x2="22.8669" y2="23.9326" gradientUnits="userSpaceOnUse">
<stop stop-color="#767679"/>
<stop offset="1" stop-color="#414245"/>
</linearGradient>
</defs>
</svg>
