<svg width="26" height="25" viewBox="0 0 26 25" fill="none" xmlns="http://www.w3.org/2000/svg">
<path d="M13 24.9609C19.8086 24.9609 25.4102 19.3594 25.4102 12.5508C25.4102 5.73047 19.8086 0.128906 12.9883 0.128906C6.16797 0.128906 0.578125 5.73047 0.578125 12.5508C0.578125 19.3594 6.17969 24.9609 13 24.9609ZM13 6.11719C13.8203 6.11719 14.4531 6.67969 14.4531 7.47656V12.6211L14.3008 15.0234L15.1797 13.793L16.3984 12.4453C16.6211 12.1875 16.9727 12.0352 17.3242 12.0352C18.0625 12.0352 18.5781 12.5391 18.5781 13.2305C18.5781 13.6172 18.4609 13.8867 18.1914 14.1914L14.1836 18.3867C13.8555 18.7383 13.4688 18.9141 13 18.9141C12.5195 18.9141 12.1445 18.75 11.8164 18.3867L7.80859 14.1914C7.52734 13.8867 7.42188 13.6172 7.42188 13.2305C7.42188 12.5391 7.9375 12.0352 8.66406 12.0352C9.02734 12.0352 9.37891 12.1875 9.60156 12.4453L10.8203 13.8281L11.6875 15.0117L11.5469 12.6211V7.47656C11.5469 6.67969 12.168 6.11719 13 6.11719Z" fill="#387FF7"/>
</svg>
