<svg width="28" height="28" viewBox="0 0 28 28" fill="none" xmlns="http://www.w3.org/2000/svg">
<path d="M15.4883 1.69922C15.4883 0.902344 14.8086 0.210938 14 0.210938C13.1914 0.210938 12.5117 0.902344 12.5117 1.69922V3.9375C12.5117 4.74609 13.1914 5.42578 14 5.42578C14.8086 5.42578 15.4883 4.74609 15.4883 3.9375V1.69922ZM20.0352 5.88281C19.4844 6.43359 19.4961 7.40625 20.0586 7.98047C20.6211 8.54297 21.5938 8.53125 22.168 7.95703L23.75 6.36328C24.3008 5.8125 24.2891 4.83984 23.7266 4.26562C23.1641 3.70312 22.1914 3.71484 21.6289 4.28906L20.0352 5.88281ZM5.83203 7.95703C6.39453 8.53125 7.36719 8.54297 7.92969 7.98047C8.49219 7.41797 8.50391 6.43359 7.95312 5.88281L6.37109 4.28906C5.80859 3.72656 4.83594 3.70312 4.28516 4.26562C3.71094 4.82812 3.69922 5.8125 4.25 6.36328L5.83203 7.95703ZM14 7.46484C10.4141 7.46484 7.47266 10.4062 7.47266 13.9922C7.47266 17.5781 10.4141 20.5195 14 20.5195C17.5742 20.5195 20.5156 17.5781 20.5156 13.9922C20.5156 10.4062 17.5742 7.46484 14 7.46484ZM26.293 15.4805C27.1016 15.4805 27.7812 14.8008 27.7812 13.9922C27.7812 13.1836 27.1016 12.5039 26.293 12.5039H24.0664C23.2578 12.5039 22.5781 13.1836 22.5781 13.9922C22.5781 14.8008 23.2578 15.4805 24.0664 15.4805H26.293ZM1.70703 12.5039C0.898438 12.5039 0.21875 13.1836 0.21875 13.9922C0.21875 14.8008 0.898438 15.4805 1.70703 15.4805H3.93359C4.74219 15.4805 5.43359 14.8008 5.43359 13.9922C5.43359 13.1836 4.74219 12.5039 3.93359 12.5039H1.70703ZM22.1445 20.0156C21.582 19.4648 20.6094 19.4648 20.0352 20.0391C19.4844 20.6016 19.4961 21.5625 20.0586 22.1367L21.6641 23.7188C22.2148 24.2812 23.1875 24.2695 23.7617 23.6953C24.3125 23.1328 24.3125 22.1602 23.7383 21.5977L22.1445 20.0156ZM4.26172 21.5977C3.6875 22.1602 3.67578 23.1328 4.22656 23.6836C4.80078 24.2578 5.77344 24.2695 6.33594 23.7188L7.92969 22.1367C8.49219 21.5625 8.50391 20.6016 7.95312 20.0391C7.37891 19.4648 6.40625 19.4648 5.84375 20.0156L4.26172 21.5977ZM15.4883 24.0469C15.4883 23.2383 14.8086 22.5586 14 22.5586C13.1914 22.5586 12.5117 23.2383 12.5117 24.0469V26.2852C12.5117 27.082 13.1914 27.7734 14 27.7734C14.8086 27.7734 15.4883 27.082 15.4883 26.2852V24.0469Z" fill="url(#paint0_linear)"/>
<defs>
<linearGradient id="paint0_linear" x1="2.58824" y1="3.65809" x2="23.0661" y2="26.2544" gradientUnits="userSpaceOnUse">
<stop stop-color="#FBC46E"/>
<stop offset="1" stop-color="#E86638"/>
</linearGradient>
</defs>
</svg>
