<svg width="127" height="192" viewBox="0 0 127 192" fill="none" xmlns="http://www.w3.org/2000/svg">
<g clip-path="url(#clip0_1_127)">
<path d="M0.5 47C0.5 12 63.5 10 63.5 10C63.5 10 126.5 12 126.5 47C126.5 82 126.5 147 126.5 147H0.5C0.5 147 0.5 82 0.5 47Z" fill="#E1E1E1"/>
<path d="M107.958 121.492C132.571 135.591 132.571 158.455 107.958 172.554C83.3461 186.654 43.439 186.654 18.8266 172.554C-5.78566 158.455 -5.79147 135.591 18.8266 121.492C43.4448 107.392 83.3461 107.386 107.958 121.492Z" fill="#C4C6C7"/>
<path d="M107.372 19.6167C119.489 26.6052 125.257 35.6961 125.257 44.5249C125.257 53.3537 119.448 62.4213 107.372 69.4622C95.295 76.5031 79.367 80.0498 63.3925 80.0498C47.418 80.0498 31.4958 76.4973 19.4075 69.4622C7.31919 62.4271 1.52771 53.3537 1.52771 44.5249C1.52771 35.6961 7.33662 26.6285 19.4075 19.5876C31.4784 12.5467 47.4122 9 63.3925 9C79.3728 9 95.2834 12.5525 107.372 19.6167Z" fill="url(#paint0_linear_1_127)" fill-opacity="0.6" stroke="white" stroke-width="2"/>
<path d="M77.0307 132.505H78.5527C79.1632 134.897 79.7737 137.29 80.3842 139.684H75.424C75.9638 137.293 76.4994 134.9 77.0307 132.505Z" fill="#654FF0"/>
<path d="M48.9309 127.668H52.5812L55.0613 140.904C55.068 140.941 55.0841 140.977 55.108 141.006C55.4938 139.37 55.8499 137.721 56.2229 136.08L58.118 127.668H61.5309C62.3788 131.893 63.2267 136.118 64.0746 140.343C64.1162 140.632 64.1829 140.916 64.2739 141.193C64.5452 140.011 64.7741 138.821 65.0327 137.636L67.1356 127.668H70.718L66.0545 147.22H62.4424C61.5436 142.778 60.6575 138.337 59.7545 133.895H59.6867L56.8122 147.203H53.1154C51.7191 140.714 50.3243 134.203 48.9309 127.668Z" fill="white"/>
<path d="M70.1118 147.25C71.686 140.733 73.2617 134.215 74.8389 127.698H80.5962L86.3111 147.25H82.5464C82.1451 145.813 81.731 144.362 81.3042 142.897H74.7371C74.4206 144.348 74.1012 145.799 73.779 147.25H70.1118ZM77.0307 132.51C76.4965 134.898 75.9652 137.29 75.4366 139.684H80.3969C79.7808 137.293 79.1703 134.901 78.5654 132.51H77.0307Z" fill="white"/>
<path d="M36.1274 97.9155H57.3549C57.2937 99.4153 57.7587 100.889 58.6692 102.081C59.4123 103.049 60.419 103.781 61.5678 104.189C62.7166 104.597 63.9585 104.663 65.1437 104.379C66.329 104.095 67.4071 103.473 68.248 102.589C69.0888 101.704 69.6566 100.595 69.8828 99.3946C69.9718 98.9068 70.0101 98.4112 69.9973 97.9155H91.2502V153.171H36.1359L36.1274 97.9155ZM48.9309 127.668C50.3272 134.186 51.7234 140.703 53.1196 147.22H56.808L59.6824 133.912H59.7503C60.6533 138.354 61.5394 142.795 62.4382 147.237H66.063L70.7265 127.685H67.1441L65.0455 137.64C64.7869 138.826 64.5579 140.016 64.2866 141.197C64.1956 140.92 64.129 140.636 64.0874 140.347C63.2394 136.122 62.3915 131.897 61.5436 127.673H58.118L56.223 136.084C55.8499 137.725 55.4938 139.374 55.108 141.01C55.0841 140.981 55.068 140.946 55.0613 140.908L52.5812 127.668H48.9309ZM70.1287 147.22H73.8002C74.1196 145.772 74.4389 144.321 74.7583 142.868H81.3212C81.731 144.319 82.1451 145.769 82.5634 147.22H86.3281C84.4231 140.703 82.5167 134.186 80.6089 127.668H74.8389C73.2618 134.186 71.6861 140.713 70.1118 147.25L70.1287 147.22Z" fill="#654FF0"/>
<path d="M91.2417 87.7018H36.1274V93.6523H91.2417V87.7018Z" fill="#ED1E79"/>
<path d="M91.2417 78.3509H36.1274V84.3015H91.2417V78.3509Z" fill="#ED1E79"/>
<path d="M91.2417 69H36.1274V74.9506H91.2417V69Z" fill="#ED1E79"/>
<g opacity="0.4">
<path opacity="0.4" fill-rule="evenodd" clip-rule="evenodd" d="M0.580893 44.5365V149.562C0.571598 150.02 0.636335 150.476 0.772588 150.913C2.24805 155.514 13.1397 182.839 63.683 182.839C114.331 182.839 124.857 155.392 126.245 150.884C126.366 150.464 126.425 150.028 126.419 149.591V44.5365C126.419 53.9186 120.273 63.3065 107.987 70.4697C83.4158 84.7903 43.5784 84.7903 19.0067 70.4697C6.7209 63.2948 0.580893 53.9186 0.580893 44.5365Z" fill="url(#paint1_linear_1_127)"/>
<g opacity="0.4">
<path opacity="0.4" d="M0.580897 44.5365H1.16179V44.1755L0.842296 44.0182L0.580897 44.5365ZM0.580897 44.5365L0.842296 44.0182L6.78527e-06 43.5814V44.5365H0.580897ZM0.772592 150.913L0.191702 151.094L0.772592 150.913ZM126.245 150.884L125.664 150.709L126.245 150.884ZM107.987 70.4697L107.697 69.963L107.987 70.4697ZM19.0067 70.4697L19.2972 69.963L19.0067 70.4697ZM0.842296 44.0182L0.313683 45.0548L0.842296 44.0182ZM6.78527e-06 44.5365V149.562H1.16179V44.5365H6.78527e-06ZM6.78527e-06 149.562C-0.00770315 150.081 0.0647975 150.597 0.214933 151.094L1.32444 150.733C1.2078 150.356 1.15287 149.962 1.16179 149.568L6.78527e-06 149.562ZM0.214933 151.094C0.981708 153.464 4.12432 161.577 13.465 169.054C22.8057 176.532 38.2981 183.421 63.683 183.421V182.257C38.5188 182.257 23.2937 175.455 14.1911 168.146C5.0886 160.837 2.03893 152.957 1.32444 150.733L0.214933 151.094ZM63.683 183.421C89.1143 183.421 104.549 176.526 113.802 169.002C123.056 161.478 126.082 153.383 126.797 151.053L125.687 150.709C125.019 152.893 122.091 160.767 113.07 168.099C104.049 175.431 88.8936 182.257 63.6946 182.257L63.683 183.421ZM126.797 151.053C126.937 150.579 127.006 150.086 127 149.591H125.838C125.846 149.97 125.795 150.347 125.687 150.709L126.797 151.053ZM127 149.591V44.5365H125.838V149.591H127ZM125.838 44.5365C125.838 53.6391 119.878 62.8639 107.697 69.963L108.278 70.9706C120.674 63.7491 127 54.1981 127 44.5365H125.838ZM107.697 69.963C95.4983 77.0622 79.5238 80.6264 63.4971 80.6264C47.4703 80.6264 31.4784 77.0622 19.2972 69.963L18.7163 70.9706C31.1125 78.1978 47.3193 81.7911 63.4971 81.7911C79.6749 81.7911 95.8875 78.1978 108.278 70.9706L107.697 69.963ZM19.2972 69.963C7.09848 62.8639 1.16179 53.6565 1.16179 44.5365H6.78527e-06C6.78527e-06 54.1981 6.32009 63.7549 18.7163 70.9706L19.2972 69.963Z" fill="url(#paint2_linear_1_127)"/>
</g>
</g>
<path d="M107.372 19.6167C119.489 26.6052 125.257 35.6961 125.257 44.5249C125.257 53.3537 119.448 62.4213 107.372 69.4622C95.295 76.5031 79.367 80.0498 63.3925 80.0498C47.418 80.0498 31.4958 76.4973 19.4075 69.4622C7.31919 62.4271 1.52771 53.3537 1.52771 44.5249C1.52771 35.6961 7.33662 26.6285 19.4075 19.5876C31.4784 12.5467 47.4122 9 63.3925 9C79.3728 9 95.2834 12.5525 107.372 19.6167Z" stroke="white" stroke-width="2"/>
<path d="M107.087 19.8573C119.208 26.7989 125 35.7356 125 44.4214C125 53.1073 119.219 62.0556 107.087 68.9798C94.9548 75.9039 79.0152 79.4214 63 79.4214C46.9848 79.4214 31.0278 75.9214 18.9131 68.9798C6.79831 62.0381 1 53.1073 1 44.4214C1 35.7356 6.78667 26.7989 18.9131 19.8573C31.0394 12.9156 46.979 9.42145 63 9.42145C79.021 9.42145 94.9664 12.9214 107.087 19.8573Z" fill="#C4C6C7" stroke="white" stroke-width="2"/>
</g>
<defs>
<linearGradient id="paint0_linear_1_127" x1="0.36593" y1="44.5249" x2="126.419" y2="44.5249" gradientUnits="userSpaceOnUse">
<stop stop-color="#5C5C5C"/>
<stop offset="0.5" stop-color="#AFB2B3"/>
<stop offset="1" stop-color="#C4C4C4" stop-opacity="0"/>
</linearGradient>
<linearGradient id="paint1_linear_1_127" x1="0.325301" y1="113.915" x2="126.384" y2="113.023" gradientUnits="userSpaceOnUse">
<stop stop-color="#9EA1A2"/>
<stop offset="0.55" stop-color="white"/>
<stop offset="1" stop-color="#A2A5A6"/>
</linearGradient>
<linearGradient id="paint2_linear_1_127" x1="63.7701" y1="76.5148" x2="62.4973" y2="170.539" gradientUnits="userSpaceOnUse">
<stop stop-color="#FDFDFE" stop-opacity="0"/>
<stop offset="1" stop-color="#FCFCFE" stop-opacity="0.05"/>
</linearGradient>
<clipPath id="clip0_1_127">
<rect width="127" height="192" fill="white"/>
</clipPath>
</defs>
</svg>
