<svg width="26" height="26" viewBox="0 0 26 26" fill="none" xmlns="http://www.w3.org/2000/svg">
<path d="M13 25.4609C19.8086 25.4609 25.4102 19.8594 25.4102 13.0508C25.4102 6.23047 19.8086 0.628906 12.9883 0.628906C6.16797 0.628906 0.578125 6.23047 0.578125 13.0508C0.578125 19.8594 6.17969 25.4609 13 25.4609ZM7.29297 13.0391C7.29297 12.2305 7.87891 11.6211 8.6875 11.6211H11.582V8.72656C11.582 7.92969 12.1797 7.33203 12.9883 7.33203C13.7969 7.33203 14.4062 7.92969 14.4062 8.72656V11.6211H17.3008C18.0977 11.6211 18.6953 12.2305 18.6953 13.0391C18.6953 13.8477 18.0977 14.4453 17.3008 14.4453H14.4062V17.3516C14.4062 18.1484 13.7969 18.7344 12.9883 18.7344C12.1797 18.7344 11.582 18.1484 11.582 17.3516V14.4453H8.6875C7.87891 14.4453 7.29297 13.8477 7.29297 13.0391Z" fill="url(#paint0_linear)"/>
<defs>
<linearGradient id="paint0_linear" x1="2.30147" y1="2.65809" x2="22.8669" y2="23.9326" gradientUnits="userSpaceOnUse">
<stop stop-color="#767679"/>
<stop offset="1" stop-color="#414245"/>
</linearGradient>
</defs>
</svg>
