<svg width="22" height="23" viewBox="0 0 22 23" fill="none" xmlns="http://www.w3.org/2000/svg">
<path d="M3.95312 22.0078H18.1445C20.6875 22.0078 22 20.6953 22 18.1875V3.92578C22 1.41797 20.6875 0.105469 18.1445 0.105469H3.95312C1.42188 0.105469 0.0976562 1.40625 0.0976562 3.92578V18.1875C0.0976562 20.6953 1.42188 22.0078 3.95312 22.0078ZM4.10547 19.6758C3.02734 19.6758 2.42969 19.1133 2.42969 17.9766V4.13672C2.42969 3 3.02734 2.4375 4.10547 2.4375H17.9922C19.0586 2.4375 19.668 3 19.668 4.13672V17.9766C19.668 19.1133 19.0586 19.6758 17.9922 19.6758H4.10547ZM14.7109 14.1094C15.2969 14.1094 15.6836 13.6758 15.6836 13.043V7.59375C15.6836 6.77344 15.2266 6.41016 14.4883 6.41016H9.00391C8.37109 6.41016 7.94922 6.78516 7.94922 7.37109C7.94922 7.96875 8.37109 8.34375 9.01562 8.34375H10.9961L12.5781 8.15625L10.8555 9.73828L6.75391 13.8398C6.55469 14.0391 6.42578 14.3086 6.42578 14.5898C6.42578 15.2227 6.85938 15.6328 7.45703 15.6328C7.78516 15.6328 8.04297 15.5156 8.25391 15.3047L12.3438 11.2148L13.9141 9.51562L13.7383 11.1914V13.0547C13.7383 13.6992 14.125 14.1094 14.7109 14.1094Z" fill="#ADADAF"/>
</svg>
