<svg width="18" height="17" viewBox="0 0 18 17" fill="none" xmlns="http://www.w3.org/2000/svg">
<path d="M8.74121 16.6406C13.2803 16.6406 17.0146 12.9062 17.0146 8.36719C17.0146 3.82031 13.2803 0.0859375 8.7334 0.0859375C4.18652 0.0859375 0.459961 3.82031 0.459961 8.36719C0.459961 12.9062 4.19434 16.6406 8.74121 16.6406ZM6.2334 11.7734C5.71777 11.7734 5.31934 11.375 5.31934 10.8516C5.31934 10.6172 5.4209 10.3906 5.59277 10.2188L7.43652 8.375L5.59277 6.53125C5.4209 6.35938 5.31934 6.125 5.31934 5.89844C5.31934 5.375 5.71777 4.97656 6.2334 4.97656C6.51465 4.97656 6.72559 5.0625 6.90527 5.25L8.7334 7.07031L10.5771 5.24219C10.7646 5.05469 10.9756 4.96875 11.249 4.96875C11.7646 4.96875 12.1631 5.36719 12.1631 5.89062C12.1631 6.125 12.0693 6.34375 11.8896 6.52344L10.0537 8.375L11.8818 10.2109C12.0615 10.3906 12.1631 10.6172 12.1631 10.8516C12.1631 11.375 11.7568 11.7734 11.2412 11.7734C10.9678 11.7734 10.7412 11.6875 10.5615 11.5078L8.7334 9.6875L6.9209 11.5078C6.7334 11.6875 6.51465 11.7734 6.2334 11.7734Z" fill="#818284"/>
</svg>
