<svg width="168" height="24" viewBox="0 0 168 24" fill="none" xmlns="http://www.w3.org/2000/svg">
<path d="M24.36 23.5V0.811998H20.712L12.232 19.916L3.816 0.811998H0.136V23.5H2.824V5.036L10.984 23.5H13.448L21.672 5.036V23.5H24.36ZM36.2763 7.724C31.8602 7.724 28.5963 11.116 28.5963 15.82C28.5963 20.556 31.8602 23.948 36.2763 23.948C40.6923 23.948 43.9563 20.556 43.9563 15.82C43.9563 11.116 40.6923 7.724 36.2763 7.724ZM36.2763 10.028C39.0283 10.028 41.3963 12.108 41.3963 15.82C41.3963 19.564 39.0283 21.644 36.2763 21.644C33.5243 21.644 31.1562 19.564 31.1562 15.82C31.1562 12.108 33.5243 10.028 36.2763 10.028ZM51.3643 3.308H48.9643V5.836C48.9643 7.276 48.2923 8.172 46.7243 8.172H45.7323V10.476H48.8043V19.308C48.8043 22.092 50.4363 23.66 52.9643 23.66C53.9563 23.66 54.6923 23.468 54.9803 23.372V21.196C54.7243 21.26 54.1483 21.356 53.7003 21.356C52.0683 21.356 51.3643 20.556 51.3643 18.956V10.476H54.9803V8.172H51.3643V3.308ZM65.12 7.724C60.704 7.724 57.44 11.116 57.44 15.82C57.44 20.556 60.704 23.948 65.12 23.948C69.536 23.948 72.8 20.556 72.8 15.82C72.8 11.116 69.536 7.724 65.12 7.724ZM65.12 10.028C67.872 10.028 70.24 12.108 70.24 15.82C70.24 19.564 67.872 21.644 65.12 21.644C62.368 21.644 60 19.564 60 15.82C60 12.108 62.368 10.028 65.12 10.028ZM89.994 8.172H86.474L79.306 15.468V0.363998H76.746V23.5H79.306V18.86L81.674 16.428L86.922 23.5H90.154L83.466 14.668L89.994 8.172ZM98.9325 7.724C94.5165 7.724 91.2525 11.116 91.2525 15.82C91.2525 20.556 94.5165 23.948 98.9325 23.948C103.349 23.948 106.613 20.556 106.613 15.82C106.613 11.116 103.349 7.724 98.9325 7.724ZM98.9325 10.028C101.685 10.028 104.053 12.108 104.053 15.82C104.053 19.564 101.685 21.644 98.9325 21.644C96.1805 21.644 93.8125 19.564 93.8125 15.82C93.8125 12.108 96.1805 10.028 98.9325 10.028ZM133.051 23.5V21.036H122.043V0.811998H119.355V23.5H133.051ZM135.096 19.436C135.096 21.772 136.984 23.948 140.152 23.948C142.904 23.948 144.568 22.444 145.24 21.196C145.24 22.38 145.368 23.148 145.432 23.5H147.928C147.832 23.02 147.736 22.22 147.736 20.94V13.196C147.736 10.22 145.912 7.724 141.56 7.724C138.264 7.724 135.704 9.708 135.384 12.62L137.816 13.196C138.04 11.244 139.384 9.9 141.624 9.9C144.024 9.9 145.176 11.212 145.176 12.94C145.176 13.612 144.92 14.092 143.8 14.252L139.672 14.86C136.984 15.244 135.096 16.748 135.096 19.436ZM140.472 21.772C138.712 21.772 137.656 20.556 137.656 19.308C137.656 17.804 138.712 16.972 140.184 16.748L145.176 16.012V17.036C145.176 20.3 143.128 21.772 140.472 21.772ZM155.055 23.5V20.972C155.951 22.636 157.743 23.948 160.303 23.948C164.751 23.948 167.343 20.396 167.343 15.82C167.343 11.34 164.911 7.724 160.367 7.724C157.615 7.724 155.823 9.228 155.119 10.668V0.363998H152.559V23.5H155.055ZM159.919 21.644C156.975 21.644 155.055 19.212 155.055 15.82C155.055 12.428 156.943 10.028 159.919 10.028C162.895 10.028 164.783 12.428 164.783 15.82C164.783 19.212 162.863 21.644 159.919 21.644Z" fill="url(#paint0_linear)"/>
<defs>
<linearGradient id="paint0_linear" x1="2.85706" y1="5.0105" x2="168.951" y2="23.932" gradientUnits="userSpaceOnUse">
<stop stop-color="#CC27DA"/>
<stop offset="0.4375" stop-color="#9462FF"/>
<stop offset="1" stop-color="#3967FF"/>
</linearGradient>
</defs>
</svg>
