<svg width="274" height="31" viewBox="0 0 274 31" fill="none" xmlns="http://www.w3.org/2000/svg">
<path d="M24.36 23.5V0.811998H20.712L12.232 19.916L3.816 0.811998H0.136V23.5H2.824V5.036L10.984 23.5H13.448L21.672 5.036V23.5H24.36ZM36.2763 7.724C31.8602 7.724 28.5963 11.116 28.5963 15.82C28.5963 20.556 31.8602 23.948 36.2763 23.948C40.6923 23.948 43.9563 20.556 43.9563 15.82C43.9563 11.116 40.6923 7.724 36.2763 7.724ZM36.2763 10.028C39.0283 10.028 41.3963 12.108 41.3963 15.82C41.3963 19.564 39.0283 21.644 36.2763 21.644C33.5243 21.644 31.1562 19.564 31.1562 15.82C31.1562 12.108 33.5243 10.028 36.2763 10.028ZM51.3643 3.308H48.9643V5.836C48.9643 7.276 48.2923 8.172 46.7243 8.172H45.7323V10.476H48.8043V19.308C48.8043 22.092 50.4363 23.66 52.9643 23.66C53.9563 23.66 54.6923 23.468 54.9803 23.372V21.196C54.7243 21.26 54.1483 21.356 53.7003 21.356C52.0683 21.356 51.3643 20.556 51.3643 18.956V10.476H54.9803V8.172H51.3643V3.308ZM65.12 7.724C60.704 7.724 57.44 11.116 57.44 15.82C57.44 20.556 60.704 23.948 65.12 23.948C69.536 23.948 72.8 20.556 72.8 15.82C72.8 11.116 69.536 7.724 65.12 7.724ZM65.12 10.028C67.872 10.028 70.24 12.108 70.24 15.82C70.24 19.564 67.872 21.644 65.12 21.644C62.368 21.644 60 19.564 60 15.82C60 12.108 62.368 10.028 65.12 10.028ZM89.994 8.172H86.474L79.306 15.468V0.363998H76.746V23.5H79.306V18.86L81.674 16.428L86.922 23.5H90.154L83.466 14.668L89.994 8.172ZM98.9325 7.724C94.5165 7.724 91.2525 11.116 91.2525 15.82C91.2525 20.556 94.5165 23.948 98.9325 23.948C103.349 23.948 106.613 20.556 106.613 15.82C106.613 11.116 103.349 7.724 98.9325 7.724ZM98.9325 10.028C101.685 10.028 104.053 12.108 104.053 15.82C104.053 19.564 101.685 21.644 98.9325 21.644C96.1805 21.644 93.8125 19.564 93.8125 15.82C93.8125 12.108 96.1805 10.028 98.9325 10.028ZM122.043 11.692V3.212H126.843C129.755 3.212 131.547 4.908 131.547 7.5C131.547 9.996 129.755 11.692 126.843 11.692H122.043ZM127.259 14.092C131.451 14.092 134.235 11.276 134.235 7.468C134.235 3.692 131.451 0.811998 127.259 0.811998H119.355V23.5H122.043V14.092H127.259ZM140.275 23.5V0.363998H137.715V23.5H140.275ZM144.189 19.436C144.189 21.772 146.077 23.948 149.245 23.948C151.997 23.948 153.661 22.444 154.333 21.196C154.333 22.38 154.461 23.148 154.525 23.5H157.021C156.925 23.02 156.829 22.22 156.829 20.94V13.196C156.829 10.22 155.005 7.724 150.653 7.724C147.357 7.724 144.797 9.708 144.477 12.62L146.909 13.196C147.133 11.244 148.477 9.9 150.717 9.9C153.117 9.9 154.269 11.212 154.269 12.94C154.269 13.612 154.013 14.092 152.893 14.252L148.765 14.86C146.077 15.244 144.189 16.748 144.189 19.436ZM149.565 21.772C147.805 21.772 146.749 20.556 146.749 19.308C146.749 17.804 147.805 16.972 149.277 16.748L154.269 16.012V17.036C154.269 20.3 152.221 21.772 149.565 21.772ZM165.15 29.58L174.974 8.172H172.19L167.422 19.02L162.366 8.172H159.422L166.014 21.676L162.302 29.58H165.15ZM176.534 24.364C176.918 27.596 179.67 30.028 183.446 30.028C189.174 30.028 190.902 26.124 190.902 22.348V8.172H188.374V10.348C187.606 8.844 185.942 7.724 183.542 7.724C179.382 7.724 176.566 11.02 176.566 15.308C176.566 19.596 179.414 22.828 183.478 22.828C185.974 22.828 187.638 21.452 188.342 19.98V22.444C188.342 25.612 187.03 27.724 183.446 27.724C180.95 27.724 179.254 25.996 178.998 23.756L176.534 24.364ZM188.47 15.276C188.47 18.444 186.582 20.524 183.798 20.524C181.014 20.524 179.126 18.444 179.126 15.276C179.126 12.108 181.014 10.028 183.798 10.028C186.582 10.028 188.47 12.108 188.47 15.276ZM204.126 8.076C203.902 8.012 203.454 7.948 203.038 7.948C201.342 7.948 199.39 8.684 198.398 10.924V8.172H195.902V23.5H198.462V15.564C198.462 12.108 200.222 10.636 202.782 10.636C203.23 10.636 203.71 10.668 204.126 10.796V8.076ZM213.433 7.724C209.016 7.724 205.753 11.116 205.753 15.82C205.753 20.556 209.016 23.948 213.433 23.948C217.849 23.948 221.113 20.556 221.113 15.82C221.113 11.116 217.849 7.724 213.433 7.724ZM213.433 10.028C216.185 10.028 218.553 12.108 218.553 15.82C218.553 19.564 216.185 21.644 213.433 21.644C210.681 21.644 208.312 19.564 208.312 15.82C208.312 12.108 210.681 10.028 213.433 10.028ZM235.235 21.42V21.548C235.235 22.316 235.299 23.148 235.395 23.5H237.859C237.763 22.892 237.667 21.804 237.667 20.62V8.172H235.107V17.42C235.107 19.852 233.731 21.644 231.203 21.644C228.483 21.644 227.427 19.628 227.427 17.388V8.172H224.867V17.804C224.867 21.196 226.915 23.948 230.627 23.948C232.643 23.948 234.499 22.988 235.235 21.42ZM245.212 14.476C245.212 12.076 246.588 10.028 249.052 10.028C251.836 10.028 252.86 11.82 252.86 14.06V23.5H255.42V13.676C255.42 10.348 253.628 7.724 249.948 7.724C247.932 7.724 246.14 8.684 245.148 10.476V8.172H242.652V23.5H245.212V14.476ZM271.319 21.292C271.319 22.284 271.415 23.148 271.479 23.5H273.975C273.911 23.18 273.815 22.156 273.815 20.62V0.363998H271.255V10.636C270.743 9.356 269.239 7.724 266.295 7.724C262.007 7.724 259.191 11.372 259.191 15.82C259.191 20.364 261.879 23.948 266.295 23.948C268.951 23.948 270.615 22.38 271.319 20.876V21.292ZM266.519 21.644C263.639 21.644 261.751 19.212 261.751 15.82C261.751 12.428 263.607 10.028 266.519 10.028C269.431 10.028 271.319 12.428 271.319 15.82C271.319 19.212 269.399 21.644 266.519 21.644Z" fill="url(#paint0_linear)"/>
<defs>
<linearGradient id="paint0_linear" x1="6.53475" y1="5.0105" x2="271.322" y2="54.1159" gradientUnits="userSpaceOnUse">
<stop stop-color="#CC27DA"/>
<stop offset="0.4375" stop-color="#9462FF"/>
<stop offset="1" stop-color="#3967FF"/>
</linearGradient>
</defs>
</svg>
